<svg width="30" height="30" viewBox="0 0 30 30" fill="none" xmlns="http://www.w3.org/2000/svg">
<g clip-path="url(#clip0)">
<path d="M27.9272 2.07438C25.1614 -0.691437 20.6607 -0.690346 17.8943 2.07438L12.8779 7.09085C12.4516 7.51707 12.4516 8.20798 12.8779 8.63421C13.3041 9.06043 13.995 9.06043 14.4212 8.63421L19.4377 3.61774C20.3605 2.69544 21.5939 2.18681 22.9102 2.18681C24.2271 2.18681 25.4605 2.69544 26.3833 3.61829C27.3062 4.54114 27.8148 5.77452 27.8148 7.09139C27.8148 8.40772 27.3062 9.6411 26.3833 10.564L19.8241 17.1249C17.9085 19.0393 14.7929 19.0393 12.8773 17.1249C12.4511 16.6986 11.7602 16.6986 11.334 17.1249C10.9077 17.5511 10.9077 18.2425 11.334 18.6682C12.7169 20.0511 14.5336 20.7426 16.3504 20.7426C18.1672 20.7426 19.984 20.0511 21.3669 18.6682L27.9272 12.1079C29.2627 10.773 29.9983 8.99112 29.9983 7.09139C29.9983 5.19112 29.2627 3.40982 27.9272 2.07438Z" fill="#484652"/>
<path d="M14.807 22.1408L10.5622 26.3855C9.6394 27.3084 8.40602 27.817 7.08914 27.817C5.77281 27.817 4.53889 27.3084 3.61604 26.3855C1.70103 24.4705 1.70103 21.3543 3.61604 19.4393L9.79057 13.2648C10.7134 12.3425 11.9468 11.8339 13.2637 11.8339C14.58 11.8339 15.8134 12.3425 16.7362 13.2648C17.1625 13.691 17.8534 13.691 18.2796 13.2648C18.7058 12.8386 18.7058 12.1477 18.2796 11.7214C15.5143 8.95616 11.0136 8.95562 8.24666 11.7214L2.07213 17.8965C0.737247 19.2314 0.00158691 21.0132 0.00158691 22.913C0.00158691 24.8122 0.737248 26.594 2.07268 27.9289C3.40756 29.2643 5.18941 30 7.0886 30C8.98832 30 10.7702 29.2643 12.1051 27.9289L16.3498 23.6841C16.7761 23.2579 16.7761 22.567 16.3498 22.1408C15.9236 21.7145 15.2333 21.7145 14.807 22.1408Z" fill="#484652"/>
</g>
<defs>
<clipPath id="clip0">
<rect width="30" height="30" fill="white"/>
</clipPath>
</defs>
</svg>
