<svg width="30" height="30" viewBox="0 0 30 30" fill="none" xmlns="http://www.w3.org/2000/svg">
<path d="M29.6333 8.95731C29.3173 8.56331 28.8387 8.33331 28.3333 8.33331H26.6667C26.6667 7.41265 25.9207 6.66665 25 6.66665H23.3333V4.99998C23.3333 4.07931 22.5873 3.33331 21.6667 3.33331H1.66667C0.746 3.33331 0 4.07931 0 4.99998V25C0 25.9206 0.746 26.6666 1.66667 26.6666H5H21.6667H25C25.7813 26.6666 26.4587 26.124 26.626 25.3613L29.9593 10.3613C30.07 9.86798 29.95 9.35131 29.6333 8.95731ZM1.66667 4.99998H21.6667V6.66665H20C19.0793 6.66665 18.3333 7.41265 18.3333 8.33331H8.33333C7.552 8.33331 6.876 8.87598 6.70667 9.63865C6.70667 9.63865 3.33467 24.88 3.33467 25H1.66667V4.99998Z" fill="#484652"/>
</svg>
