<svg width="30" height="30" viewBox="0 0 30 30" fill="none" xmlns="http://www.w3.org/2000/svg">
<g clip-path="url(#clip0)">
<path d="M16.5847 10.6909H13.365V19.2768H11.877L14.9748 22.7622L18.0727 19.2768H16.5847V10.6909Z" fill="#484652"/>
<path d="M23.5606 13.3738C23.5252 13.3738 23.4875 13.3738 23.4532 13.3738C23.2831 13.3906 23.1151 13.3254 23.0012 13.1983C22.8869 13.0712 22.8403 12.8972 22.8751 12.7301C23.4401 9.98094 22.4252 7.1464 20.2444 5.38012C18.0634 3.61383 15.08 3.21032 12.5083 4.33413C9.93655 5.45767 8.20564 7.92119 8.02013 10.7214C8.00152 11.0041 7.76675 11.2237 7.48351 11.2232C3.4476 11.2389 0.145091 14.4405 0.00438593 18.4738C-0.136057 22.5074 2.93509 25.9312 6.96025 26.2281C7.13581 26.244 7.29616 26.2485 7.46202 26.2485H23.5606C27.117 26.2485 30 23.3655 30 19.8091C30 16.2527 27.117 13.3697 23.5606 13.3697V13.3738ZM14.9747 24.3771L9.48666 18.2034H12.2916V9.61752H17.6578V18.2034H20.4627L14.9747 24.3771Z" fill="#484652"/>
</g>
<defs>
<clipPath id="clip0">
<rect width="30" height="30" fill="white"/>
</clipPath>
</defs>
</svg>
