<svg width="30" height="30" viewBox="0 0 30 30" fill="none" xmlns="http://www.w3.org/2000/svg">
<g clip-path="url(#clip0)">
<path d="M29.6094 8.28095C29.3491 7.65623 29.0364 7.16129 28.6716 6.7968L23.2028 1.32797C22.8385 0.96369 22.3436 0.651057 21.7186 0.390484C21.094 0.130184 20.5209 0 20.0002 0H1.87509C1.35442 0 0.911601 0.182176 0.546976 0.5468C0.182351 0.91122 0.000244141 1.35397 0.000244141 1.87491V28.1251C0.000244141 28.6462 0.182351 29.0889 0.546976 29.4534C0.911601 29.8177 1.35442 30.0001 1.87509 30.0001H28.1252C28.6463 30.0001 29.089 29.8177 29.4535 29.4534C29.8178 29.0889 29.9999 28.6462 29.9999 28.1251V10C29.9999 9.47901 29.8698 8.90615 29.6094 8.28095ZM12.5002 3.12476C12.5002 2.95551 12.5621 2.80932 12.6859 2.68536C12.8095 2.56195 12.9561 2.50011 13.1253 2.50011H16.8755C17.0443 2.50011 17.1908 2.56181 17.3144 2.68536C17.4385 2.80932 17.5003 2.95551 17.5003 3.12476V9.37483C17.5003 9.54434 17.4381 9.69074 17.3144 9.8145C17.1908 9.93784 17.0443 9.99975 16.8755 9.99975H13.1253C12.9561 9.99975 12.8095 9.93804 12.6859 9.8145C12.5621 9.69054 12.5002 9.54434 12.5002 9.37483V3.12476V3.12476ZM22.5005 27.5002H7.50002V20H22.5005V27.5002ZM27.5008 27.5002H25.0003H24.9998V19.3749C24.9998 18.8538 24.8176 18.4114 24.4532 18.0466C24.0887 17.6821 23.6459 17.4997 23.1253 17.4997H6.8751C6.35422 17.4997 5.91141 17.6821 5.54678 18.0466C5.18236 18.4111 5.00005 18.8538 5.00005 19.3749V27.5002H2.50001V2.49983H4.99998V10.6249C4.99998 11.1459 5.18209 11.5884 5.54671 11.9531C5.91134 12.3175 6.35416 12.4999 6.87503 12.4999H18.1254C18.646 12.4999 19.0893 12.3175 19.4533 11.9531C19.8176 11.5886 20.0002 11.1459 20.0002 10.6249V2.49983C20.1954 2.49983 20.4491 2.56482 20.762 2.69501C21.0747 2.82512 21.296 2.95531 21.4262 3.08549L26.9148 8.57402C27.0449 8.7042 27.1752 8.92907 27.3053 9.24792C27.4359 9.56706 27.5008 9.81778 27.5008 10V27.5002H27.5008Z" fill="#484652"/>
</g>
<defs>
<clipPath id="clip0">
<rect width="30" height="30" fill="white"/>
</clipPath>
</defs>
</svg>
